<?xml version="1.0" encoding="UTF-8"?>
<svg version="1.1" xmlns="http://www.w3.org/2000/svg" width="512" height="512">
<path d="M0 0 C7.18630736 5.01517917 12.28051708 11.64054597 15 20 C15.29429535 22.74204036 15.46042709 25.31960239 15.5 28.0625 C15.561875 29.09407227 15.561875 29.09407227 15.625 30.14648438 C15.76977919 40.05481034 10.13333271 48.31413386 3.52190399 55.23314285 C1.29241351 57.51749903 -0.97369961 59.76274007 -3.2442627 62.00616455 C-4.50292143 63.2717476 -5.760271 64.53863376 -7.01643133 65.80669665 C-10.4513618 69.26655428 -13.90460763 72.70759491 -17.36132193 76.14566994 C-21.09420662 79.86493571 -24.80973015 83.60147857 -28.52755737 87.33578491 C-35.80595013 94.64081793 -43.1004233 101.92958494 -50.40084475 109.21259645 C-56.33648475 115.13466853 -62.26622106 121.06259239 -68.19181824 126.99471283 C-69.03622372 127.84003771 -69.8806292 128.68536258 -70.75062272 129.55630337 C-72.46618867 131.27378774 -74.18174117 132.99128553 -75.8972804 134.70879659 C-91.97472528 150.80333973 -108.07048929 166.87946109 -124.17260379 182.94931778 C-137.97478916 196.7247074 -151.76118151 210.51573844 -165.53613281 224.31835938 C-181.54664925 240.36102111 -197.5669011 256.39385745 -213.6026988 272.41125178 C-215.31436362 274.12100539 -217.02601594 275.83077149 -218.73765564 277.54055023 C-219.57973349 278.38170242 -220.42181133 279.22285462 -221.28940669 280.08949627 C-227.20955387 286.00447305 -233.12273095 291.92636264 -239.03321838 297.8509903 C-246.24247235 305.07711257 -253.46240187 312.29236364 -260.69601601 319.49410346 C-264.38323794 323.16560981 -268.06559874 326.84165171 -271.7349968 330.53097916 C-275.10026468 333.91424668 -278.47929177 337.28313046 -281.86939234 340.64150938 C-283.08730382 341.85276951 -284.30029498 343.06900374 -285.5075317 344.29090348 C-298.59484737 357.52479836 -312.27851326 366.13476677 -331.375 366.4375 C-339.46853438 366.38843389 -346.49802975 365.19490917 -354 362 C-354.89460937 361.63390625 -355.78921875 361.2678125 -356.7109375 360.890625 C-362.32599194 358.22306248 -366.79806548 354.57861199 -371.28295898 350.3293457 C-371.91915633 349.73060544 -372.55535368 349.13186518 -373.21082973 348.51498127 C-383.43373784 338.82108188 -393.36443789 328.81996402 -403.33359075 318.86659789 C-405.11441477 317.08873813 -406.89581009 315.31145264 -408.67736626 313.53432655 C-414.27417079 307.95111417 -419.8690326 302.36596614 -425.46099287 296.77790183 C-431.87736221 290.36603097 -438.30026213 283.96079629 -444.72878462 277.56111068 C-449.73148831 272.58006083 -454.72837591 267.5932246 -459.72093195 262.60200387 C-462.68960803 259.63437063 -465.66061236 256.66916605 -468.637743 253.71001244 C-471.43115316 250.93315359 -474.21722537 248.14913217 -476.99799728 245.35961914 C-478.01361496 244.3432356 -479.03175946 243.32936911 -480.05272102 242.31835365 C-488.79789364 233.65335489 -497.0878912 225.22845826 -497.38061523 212.29101562 C-497.35113202 201.57450787 -495.49408072 193.70973224 -487.98828125 185.75390625 C-480.55905309 179.20042207 -471.70886811 176.4536462 -461.89453125 176.6953125 C-447.00856077 178.26225676 -437.13171682 189.56407051 -427.13427734 199.63867188 C-426.08891099 200.68460389 -425.04310106 201.73009271 -423.99688721 202.775177 C-421.18729029 205.58420542 -418.38385718 208.3993104 -415.58157682 211.2156353 C-412.6410665 214.16873782 -409.69480498 217.11609164 -406.74917603 220.06408691 C-401.18517117 225.63428179 -395.62627965 231.20955023 -390.06925452 236.7867074 C-383.73697767 243.14142085 -377.39894915 249.49038463 -371.06045604 255.83889675 C-358.03394115 268.88625742 -345.01458545 281.94074037 -332 295 C-325.38042172 289.55943082 -319.392267 283.52033117 -313.35438538 277.45445251 C-312.17457215 276.2729255 -310.99453253 275.0916245 -309.81428713 273.9105292 C-306.58245472 270.67512073 -303.35374221 267.43661452 -300.12551796 264.19760644 C-296.63925181 260.70083199 -293.15003502 257.20700412 -289.66111755 253.71287537 C-283.61876496 247.66082264 -277.57808483 241.60710483 -271.53837776 235.55241203 C-261.9913663 225.98200568 -252.43914954 216.41680409 -242.88609314 206.85243225 C-239.61617444 203.57851241 -236.34628955 200.30455881 -233.07641506 197.03059483 C-232.25931994 196.21248047 -231.44222482 195.39436612 -230.60036923 194.55146043 C-221.30570372 185.24505898 -212.01211163 175.93758592 -202.71899414 166.62963867 C-201.86973531 165.77902741 -201.02047648 164.92841614 -200.14548253 164.05202878 C-186.37474583 150.25909823 -172.60785431 136.46233464 -158.84192712 122.66460424 C-144.70391277 108.49420694 -130.56014619 94.32956826 -116.41144079 80.16984564 C-107.68661255 71.43779308 -98.96655425 62.7010309 -90.2525612 53.9581653 C-84.28238822 47.96900166 -78.30677935 41.98529799 -72.32685835 36.00586741 C-68.87699108 32.5559371 -65.42963036 29.10359496 -61.98880386 25.64464569 C-58.83766148 22.47700368 -55.67964544 19.31638619 -52.51607101 16.16116161 C-51.37421286 15.01987651 -50.23488475 13.87605314 -49.09839392 12.72942316 C-35.70889821 -0.77306714 -18.76761012 -11.24067108 0 0 Z " fill="#F3F3F3" transform="translate(497,75)"/>
</svg>
