<?xml version="1.0" encoding="UTF-8"?>
<svg version="1.1" xmlns="http://www.w3.org/2000/svg" width="512" height="512">
<path d="M0 0 C12.63795552 7.81968511 23.2022564 21.09716027 33.62273788 31.53944111 C35.52574691 33.44273265 37.42895411 35.34582408 39.33240891 37.24866962 C43.40831109 41.3240509 47.48239814 45.40123922 51.55521011 49.47970867 C57.44360367 55.3762763 63.33480126 61.27003605 69.22665724 67.16314379 C78.78886767 76.72753552 88.34884913 86.29415191 97.90740585 95.86219501 C107.18519603 105.14918327 116.46405012 114.43510643 125.74431992 123.71961689 C126.31765738 124.29321708 126.89099485 124.86681727 127.48170617 125.45779928 C130.35836704 128.33576531 133.23504866 131.21371061 136.11174059 134.0916456 C159.92558939 157.91583827 183.735811 181.74365293 207.54363632 205.57386494 C210.63285898 204.19784664 212.74006126 202.62464511 215.12133789 200.23387909 C215.81756421 199.53978477 216.51379054 198.84569044 217.23111463 198.13056296 C217.98830501 197.36550053 218.7454954 196.6004381 219.52563095 195.81219196 C220.33603104 195.00138402 221.14643114 194.19057608 221.98138881 193.3551982 C224.22945718 191.10404236 226.47297236 188.84845929 228.71468139 186.59097397 C231.13375099 184.15710338 233.55863993 181.72904348 235.98289108 179.30033588 C240.18367776 175.09036157 244.38094828 170.87690808 248.5760231 166.66124249 C254.64860061 160.55913394 260.72812297 154.46398174 266.8096548 148.37079868 C276.68571523 138.47571949 286.55840134 128.57728187 296.42791367 118.67567158 C297.01868552 118.08298179 297.60945737 117.49029201 298.21813139 116.87964193 C304.80581389 110.27042333 311.39267956 103.66039157 317.97863388 97.04945087 C320.36503824 94.65401526 322.75144993 92.25858695 325.1378746 89.86317158 C325.7267126 89.27211192 326.3155506 88.68105226 326.92223218 88.07208171 C336.74808346 78.20948202 346.57977729 68.35272916 356.41605163 58.50052482 C362.48081912 52.42543357 368.54050596 46.34535981 374.59371129 40.25874756 C378.74461664 36.08567062 382.90091759 31.91801917 387.06146654 27.75455698 C389.46024347 25.3537355 391.85561236 22.94975568 394.24611855 20.54068279 C396.84174803 17.92562395 399.44651001 15.32000763 402.05370712 12.71648884 C402.80197462 11.95811857 403.55024212 11.19974831 404.3211844 10.41839713 C412.52936063 2.26527543 420.40940714 -2.83241309 432.29363632 -2.80113506 C441.60050238 -2.76064727 449.07397227 -0.60947696 456.01238632 5.87073994 C463.40723118 14.0956184 465.148178 22.82198218 464.83660507 33.60511494 C463.47594358 52.03754267 442.8416541 66.41497409 430.57806015 78.6529665 C428.67476861 80.55597552 426.77167718 82.45918273 424.86883163 84.36263752 C420.79345036 88.43853971 416.71626204 92.51262675 412.63779259 96.58543873 C406.74122495 102.47383229 400.84746521 108.36502988 394.95435747 114.25688586 C385.38996574 123.81909628 375.82334934 133.37907774 366.25530624 142.93763447 C356.96831799 152.21542465 347.68239482 161.49427873 338.39788437 170.77454853 C337.82428418 171.347886 337.25068399 171.92122346 336.65970198 172.51193479 C333.78173595 175.38859566 330.90379065 178.26527727 328.02585566 181.1419692 C304.20166299 204.95581801 280.37384833 228.76603962 256.54363632 252.57386494 C257.91965461 255.66308759 259.49285615 257.77028988 261.88362217 260.15156651 C262.57771649 260.84779283 263.27181081 261.54401915 263.9869383 262.26134324 C264.75200073 263.01853363 265.51706316 263.77572402 266.3053093 264.55585957 C267.11611724 265.36625966 267.92692518 266.17665975 268.76230305 267.01161742 C271.0134589 269.2596858 273.26904197 271.50320097 275.52652729 273.74491 C277.96039787 276.1639796 280.38845778 278.58886854 282.81716537 281.0131197 C287.02713969 285.21390637 291.24059318 289.41117689 295.45625877 293.60625172 C301.55836732 299.67882923 307.65351952 305.75835158 313.74670257 311.83988342 C323.64178176 321.71594384 333.54021939 331.58862996 343.44182968 341.45814228 C344.03451947 342.04891413 344.62720925 342.63968598 345.23785933 343.24836001 C351.84707793 349.83604251 358.45710969 356.42290817 365.06805038 363.0088625 C367.463486 365.39526685 369.85891431 367.78167854 372.25432968 370.16810322 C372.84538934 370.75694122 373.436449 371.34577922 374.04541955 371.9524608 C383.90801924 381.77831208 393.7647721 391.6100059 403.61697644 401.44628024 C409.69206769 407.51104773 415.77214145 413.57073458 421.8587537 419.6239399 C426.03183063 423.77484526 430.19948209 427.93114621 434.36294428 432.09169516 C436.76376576 434.49047209 439.16774557 436.88584097 441.57681847 439.27634716 C444.19187731 441.87197665 446.79749363 444.47673863 449.40101242 447.08393574 C450.15938268 447.83220324 450.91775295 448.58047074 451.69910413 449.35141301 C459.85222583 457.55958924 464.94991435 465.43963576 464.91863632 477.32386494 C464.87814852 486.63073099 462.72697822 494.10420088 456.24676132 501.04261494 C448.02188286 508.4374598 439.29551908 510.17840662 428.51238632 509.86683369 C410.07995859 508.50617219 395.70252717 487.87188272 383.46453476 475.60828876 C381.56152573 473.70499722 379.65831853 471.80190579 377.75486374 469.89906025 C373.67896155 465.82367898 369.60487451 461.74649065 365.53206253 457.6680212 C359.64366897 451.77145357 353.75247138 445.87769382 347.8606154 439.98458608 C338.29840497 430.42019436 328.73842352 420.85357796 319.17986679 411.28553486 C309.90207661 401.99854661 300.62322252 392.71262344 291.34295273 383.42811298 C290.76961526 382.8545128 290.1962778 382.28091261 289.60556647 381.6899306 C286.7289056 378.81196456 283.85222398 375.93401926 280.97553205 373.05608428 C257.16168325 349.23189161 233.35146164 325.40407695 209.54363632 301.57386494 C206.45441367 302.94988323 204.34721138 304.52308477 201.96593475 306.91385078 C200.92159527 307.95499227 200.92159527 307.95499227 199.85615802 309.01716691 C199.09896763 309.78222934 198.34177724 310.54729177 197.56164169 311.33553791 C196.34604155 312.55174982 196.34604155 312.55174982 195.10588384 313.79253167 C192.85781546 316.04368751 190.61430029 318.29927059 188.37259126 320.5567559 C185.95352165 322.99062649 183.52863272 325.41868639 181.10438156 327.84739399 C176.90359489 332.0573683 172.70632437 336.27082179 168.51124954 340.48648739 C162.43867203 346.58859593 156.35914968 352.68374814 150.27761784 358.77693119 C140.40155741 368.67201038 130.5288713 378.57044801 120.65935898 388.4720583 C120.06858713 389.06474808 119.47781528 389.65743786 118.86914125 390.26808795 C112.28145875 396.87730654 105.69459308 403.48733831 99.10863876 410.098279 C96.72223441 412.49371462 94.33582272 414.88914292 91.94939804 417.2845583 C91.36056004 417.87561795 90.77172204 418.46667761 90.16504046 419.07564817 C80.33918918 428.93824785 70.50749536 438.79500072 60.67122102 448.64720505 C54.60645353 454.72229631 48.54676668 460.80237007 42.49356136 466.88898232 C38.342656 471.06205925 34.18635505 475.22971071 30.0258061 479.3931729 C27.62702917 481.79399437 25.23166029 484.19797419 22.8411541 486.60704708 C20.24552461 489.22210592 17.64076263 491.82772225 15.03356552 494.43124104 C14.28529802 495.1896113 13.53703052 495.94798156 12.76608825 496.72933275 C4.55791202 504.88245445 -3.3221345 509.98014297 -15.20636368 509.94886494 C-24.51322973 509.90837714 -31.98669962 507.75720684 -38.92511368 501.27698994 C-46.31995854 493.05211147 -48.06090536 484.32574769 -47.74933243 473.54261494 C-46.38867093 455.1101872 -25.75438146 440.73275578 -13.49078751 428.49476337 C-11.58749597 426.59175435 -9.68440453 424.68854714 -7.78155899 422.78509235 C-3.70617772 418.70919017 0.37101061 414.63510312 4.44948006 410.56229115 C10.34604769 404.67389759 16.23980744 398.7827 22.13291518 392.89084402 C31.6973069 383.32863359 41.2639233 373.76865213 50.8319664 364.21009541 C60.11895465 354.93230523 69.40487782 345.65345114 78.68938828 336.37318134 C79.26298846 335.79984388 79.83658865 335.22650641 80.42757066 334.63579509 C83.3055367 331.75913422 86.18348199 328.8824526 89.06141698 326.00576067 C112.88560965 302.19191187 136.71342431 278.38169026 160.54363632 254.57386494 C159.16761803 251.48464228 157.59441649 249.37743999 155.20365047 246.99616337 C154.16250899 245.95182388 154.16250899 245.95182388 153.10033435 244.88638663 C152.33527192 244.12919625 151.57020949 243.37200586 150.78196335 242.59187031 C149.97115541 241.78147022 149.16034747 240.97107012 148.32496959 240.13611245 C146.07381375 237.88804408 143.81823067 235.6445289 141.56074536 233.40281987 C139.12687477 230.98375027 136.69881486 228.55886133 134.27010727 226.13461018 C130.06013296 221.9338235 125.84667947 217.73655298 121.63101387 213.54147816 C115.52890533 207.46890065 109.43375312 201.38937829 103.34057007 195.30784646 C93.44549088 185.43178603 83.54705325 175.55909991 73.64544296 165.68958759 C73.05275318 165.09881574 72.46006339 164.50804389 71.84941331 163.89936987 C65.24019471 157.31168737 58.63016295 150.7248217 52.01922226 144.13886738 C49.62378664 141.75246302 47.22835834 139.36605133 44.83294296 136.97962666 C44.24188331 136.39078865 43.65082365 135.80195065 43.04185309 135.19526908 C33.17925341 125.3694178 23.32250054 115.53772397 13.4702962 105.70144963 C7.39520495 99.63668214 1.31513119 93.5769953 -4.77148106 87.52378997 C-8.94455799 83.37288462 -13.11220945 79.21658366 -17.27567164 75.05603471 C-19.67649311 72.65725779 -22.08047293 70.2618889 -24.48954582 67.87138271 C-27.10460466 65.27575323 -29.71022099 62.67099125 -32.31373978 60.06379414 C-33.07211004 59.31552664 -33.8304803 58.56725914 -34.61183149 57.79631686 C-42.76495319 49.58814063 -47.86264171 41.70809411 -47.83136368 29.82386494 C-47.79087588 20.51699888 -45.63970558 13.04352899 -39.15948868 6.10511494 C-29.03706335 -2.99578123 -12.5175932 -6.31810197 0 0 Z " fill="#F4F4F4" transform="translate(47.456363677978516,2.4261350631713867)"/>
</svg>
