<?xml version="1.0" encoding="UTF-8"?>
<svg version="1.1" xmlns="http://www.w3.org/2000/svg" width="512" height="512">
<path d="M0 0 C2.64837088 -0.00707111 5.29669733 -0.01568695 7.9450531 -0.02610779 C14.35056686 -0.04758645 20.75590186 -0.04766263 27.16143969 -0.03948224 C32.37585453 -0.03314381 37.59021783 -0.03435417 42.80463219 -0.04075432 C43.55102844 -0.04165597 44.2974247 -0.04255763 45.06643903 -0.04348661 C46.58347507 -0.0453381 48.1005111 -0.04720066 49.61754712 -0.04907417 C63.7963273 -0.06559688 77.97500755 -0.05698123 92.15378167 -0.04008859 C105.07805745 -0.02540161 118.00210052 -0.0400157 130.92634634 -0.06885875 C144.25101906 -0.09837011 157.57558484 -0.1091907 170.90028876 -0.09967655 C172.41219594 -0.09865417 173.92410314 -0.09765956 175.43601036 -0.09669304 C176.55137025 -0.09597845 176.55137025 -0.09597845 177.68926266 -0.09524943 C182.88541619 -0.09310047 188.08146669 -0.10280782 193.27759743 -0.11746407 C199.6274795 -0.13512734 205.97706559 -0.13467265 212.32693676 -0.11211241 C215.55612103 -0.1010943 218.78468866 -0.1003041 222.01386642 -0.11641312 C256.84194053 -0.2762677 284.36354762 9.41985355 309.34977436 33.99445534 C311.52979885 36.16041649 313.69947728 38.33636394 315.86791992 40.51391602 C317.41528789 42.05603255 318.96317032 43.59763303 320.51153564 45.13874817 C323.73514425 48.35202017 326.95127506 51.57254796 330.16235352 54.79833984 C334.24397546 58.89714606 338.34560101 62.97524594 342.45335007 67.04784679 C345.64878033 70.22114364 348.83224224 73.40624478 352.01248932 76.59475136 C353.51871214 78.10178483 355.028692 79.6050744 356.5427475 81.10423851 C376.94383975 101.33522822 393.32903803 126.61655818 393.46877462 156.3431046 C393.46849807 157.8859787 393.46849807 157.8859787 393.46821594 159.46002197 C393.47189263 160.56317458 393.47556932 161.66632719 393.47935742 162.80290866 C393.49037438 166.50117886 393.4942348 170.19942094 393.49804688 173.89770508 C393.5043132 176.54915533 393.51094776 179.20060261 393.51795959 181.85205078 C393.53768878 189.81114249 393.5477873 197.7702354 393.55668738 205.72934544 C393.56107751 209.48467219 393.56644256 213.23999754 393.57167625 216.99532318 C393.58868764 229.49248079 393.60317825 241.98963755 393.610425 254.48680496 C393.61233466 257.7272873 393.61425502 260.96776964 393.61621094 264.20825195 C393.61669468 265.01358457 393.61717842 265.8189172 393.61767682 266.64865384 C393.62596381 279.67267369 393.65127857 292.69660131 393.68379162 305.72058097 C393.71695702 319.11602665 393.73488243 332.51142563 393.73806924 345.90691257 C393.74022596 353.41813551 393.74885059 360.92922409 393.77453041 368.4404068 C393.79636769 374.84221082 393.80422462 381.24384783 393.79456363 387.64568487 C393.79005572 390.90473359 393.79393411 394.16337108 393.81132507 397.42238617 C393.98507478 431.93662578 384.67792579 459.04727565 360.80932617 484.17797852 C335.85166607 508.44767862 305.07831835 513.17002825 271.76562595 513.05634594 C267.79007379 513.04719618 263.81458859 513.06131371 259.83905029 513.07226562 C252.07495894 513.08995084 244.3110232 513.08625582 236.54692602 513.07461506 C230.23075438 513.06554133 223.91462601 513.06437367 217.59844971 513.06871033 C216.24442572 513.06962973 216.24442572 513.06962973 214.86304772 513.0705677 C213.02864248 513.07184674 211.19423726 513.0731436 209.35983205 513.07445806 C192.2024711 513.08583457 175.04519596 513.07279631 157.88784909 513.0512566 C143.20082456 513.03338829 128.51392655 513.03649322 113.8269043 513.05493164 C96.72637542 513.07639031 79.62592155 513.08473621 62.52538109 513.07248259 C60.69813412 513.07120854 58.87088713 513.06995105 57.04364014 513.06871033 C56.14485457 513.06809323 55.24606899 513.06747612 54.3200475 513.06684032 C48.01943782 513.06340238 41.71887616 513.06918201 35.41827393 513.07862854 C27.72850233 513.08990564 20.03889382 513.08668948 12.34914064 513.06550556 C8.43387929 513.05507132 4.51888875 513.05074103 0.60363007 513.06410217 C-35.64199934 513.17735335 -63.72286391 505.28642603 -90.32348633 480.02172852 C-114.59318643 455.06406841 -119.31553607 424.29072069 -119.20185375 390.9780283 C-119.192704 387.00247614 -119.20682153 383.02699093 -119.21777344 379.05145264 C-119.23545865 371.28736128 -119.23176364 363.52342555 -119.22012287 355.75932837 C-119.21104914 349.44315672 -119.20988148 343.12702836 -119.21421814 336.81085205 C-119.21483107 335.90816939 -119.215444 335.00548674 -119.21607551 334.07545006 C-119.21735455 332.24104483 -119.21865141 330.4066396 -119.21996588 328.57223439 C-119.23134238 311.41487344 -119.21830413 294.25759831 -119.19676441 277.10025144 C-119.1788961 262.41322691 -119.18200104 247.72632889 -119.20043945 233.03930664 C-119.22189812 215.93877777 -119.23024402 198.83832389 -119.2179904 181.73778343 C-119.21671635 179.91053646 -119.21545886 178.08328948 -119.21421814 176.25604248 C-119.21360104 175.35725691 -119.21298394 174.45847134 -119.21234813 173.53244984 C-119.20891019 167.23184017 -119.21468982 160.9312785 -119.22413635 154.63067627 C-119.23541345 146.94090467 -119.2321973 139.25129616 -119.21101338 131.56154299 C-119.20057913 127.64628163 -119.19624884 123.7312911 -119.20960999 119.81603241 C-119.32286116 83.57040301 -111.43193384 55.48953844 -86.16723633 28.88891602 C-62.14151917 5.52546978 -32.23553716 -0.09120477 0 0 Z M-57.67895508 62.53344727 C-75.65252579 81.50381913 -76.29006778 103.88929783 -76.20185375 128.53336525 C-76.19271408 132.31804833 -76.20681666 136.10266062 -76.21777344 139.8873291 C-76.23546916 147.28071588 -76.23175888 154.67393934 -76.22012287 162.06733227 C-76.21105334 168.08131934 -76.20987969 174.09526096 -76.21421814 180.10925293 C-76.21483107 180.96837823 -76.215444 181.82750353 -76.21607551 182.71266294 C-76.21735454 184.4584907 -76.21865139 186.20431846 -76.21996588 187.9501462 C-76.23134546 204.28336827 -76.21829926 220.61650022 -76.19676441 236.94970751 C-76.17889582 250.93469709 -76.18200066 264.91955382 -76.20043945 278.90454102 C-76.22189264 295.18320778 -76.23024707 311.46179577 -76.2179904 327.7404747 C-76.21671633 329.47953032 -76.21545885 331.21858596 -76.21421814 332.9576416 C-76.21360104 333.81307281 -76.21298394 334.66850401 -76.21234813 335.54985738 C-76.20890855 341.54981852 -76.21469339 347.54972928 -76.22413635 353.54968262 C-76.23540732 360.87138906 -76.23220998 368.19292418 -76.21101338 375.51461124 C-76.20057098 379.243291 -76.1962631 382.97168614 -76.20960999 386.70036316 C-76.29319299 412.19765549 -74.46456341 433.3683317 -55.67895508 452.53344727 C-36.22114155 469.27105291 -15.19272921 470.14409328 9.32096291 470.05634594 C13.10564599 470.04720627 16.89025827 470.06130884 20.67492676 470.07226562 C28.06831354 470.08996135 35.461537 470.08625107 42.85492992 470.07461506 C48.868917 470.06554553 54.88285862 470.06437188 60.89685059 470.06871033 C61.75597589 470.06932326 62.61510119 470.06993619 63.50026059 470.0705677 C65.24608836 470.07184672 66.99191611 470.07314358 68.73774385 470.07445806 C85.07096592 470.08583765 101.40409788 470.07279145 117.73730516 470.0512566 C131.72229475 470.033388 145.70715148 470.03649285 159.69213867 470.05493164 C175.97080544 470.07638483 192.24939343 470.08473926 208.52807236 470.07248259 C210.26712798 470.07120852 212.00618361 470.06995103 213.74523926 470.06871033 C214.60067046 470.06809323 215.45610167 470.06747612 216.33745503 470.06684032 C222.33741618 470.06340074 228.33732694 470.06918558 234.33728027 470.07862854 C241.65898671 470.08989951 248.98052184 470.08670217 256.3022089 470.06550556 C260.03088865 470.05506317 263.7592838 470.05075529 267.48796082 470.06410217 C292.98525315 470.14768518 314.15592935 468.3190556 333.32104492 449.53344727 C349.2838692 430.97633314 350.9250732 411.01856538 350.83862305 387.56274414 C350.84405283 385.07405693 350.85118027 382.58537293 350.85986328 380.09669495 C350.87612081 374.07488198 350.87386403 368.05334651 350.86221272 362.0315448 C350.85312974 357.13168528 350.85197525 352.23188154 350.85630798 347.33201599 C350.85722738 346.28062142 350.85722738 346.28062142 350.85816535 345.20798656 C350.85944443 343.78346779 350.86074128 342.35894904 350.86205572 340.9344303 C350.8734255 327.61850229 350.86040467 314.30268495 350.83885425 300.9867751 C350.82098653 289.59423677 350.82409166 278.20186156 350.8425293 266.80932617 C350.86400002 253.536704 350.8723272 240.2641785 350.86008024 226.99154139 C350.85880622 225.57265379 350.85754874 224.15376617 350.85630798 222.73487854 C350.85569088 222.03700162 350.85507378 221.3391247 350.85443798 220.62009999 C350.85100361 215.73372423 350.85677179 210.84741047 350.8662262 205.96104431 C350.87870359 199.36822062 350.86965154 192.77565485 350.84664917 186.18284416 C350.84139347 183.77394555 350.84282149 181.36502087 350.85169983 178.95613289 C350.95507377 148.04083804 342.68158987 129.95541695 320.97914124 108.10186768 C316.84890045 103.95942402 312.70595385 99.82983167 308.55969238 95.70343018 C306.15729583 93.31141803 303.7578662 90.91643341 301.3581543 88.52172852 C296.68178749 83.85628437 292.00256618 79.19371888 287.32104492 74.53344727 C285.18006426 78.52031091 284.38957091 82.56902273 283.50854492 86.97094727 C279.55027529 105.51651731 271.52503748 123.95183126 257.55932617 137.20532227 C256.09373328 138.4746124 256.09373328 138.4746124 256.32104492 140.53344727 C255.74225586 140.78868164 255.1634668 141.04391602 254.56713867 141.30688477 C252.09412026 142.65736786 250.41062847 144.20528807 248.38354492 146.15844727 C230.07016083 162.65242349 205.1089285 170.66650515 180.77441406 170.69458008 C179.21672302 170.70202744 179.21672302 170.70202744 177.62756348 170.70962524 C174.20376919 170.72418645 170.7800213 170.73104049 167.35620117 170.73657227 C165.5919621 170.74081333 165.5919621 170.74081333 163.79208183 170.74514008 C157.56206921 170.7601121 151.33207961 170.7693528 145.10205078 170.77368164 C138.70392913 170.77914856 132.30602218 170.80314484 125.90796757 170.83165359 C120.95675569 170.85039405 116.00559423 170.85549172 111.0543499 170.85701752 C108.69792959 170.86002128 106.34150967 170.86797162 103.98512459 170.8812027 C71.27490482 171.05169023 42.17784527 163.00875169 18.31713867 139.65454102 C-3.83875245 117.00924751 -11.54541793 88.19525889 -12.30395508 57.15844727 C-12.34229227 55.82509288 -12.38135196 54.49175907 -12.42114258 53.15844727 C-12.51413405 49.9502415 -12.59997672 46.74202325 -12.67895508 43.53344727 C-29.75112615 43.27774074 -45.47102187 50.92744605 -57.67895508 62.53344727 Z M31.32104492 43.53344727 C31.28049791 47.64681004 31.25120624 51.76009337 31.23178101 55.87361145 C31.22367219 57.26932302 31.21263125 58.66502107 31.19845581 60.0606842 C30.99993782 80.12672112 36.1562981 95.82390249 50.32104492 110.53344727 C69.3603659 127.46617671 89.54500378 128.69161162 113.68041992 128.70141602 C115.55690536 128.70463713 117.43339055 128.70800182 119.30987549 128.71150208 C123.22994569 128.71746266 127.14999395 128.71934515 131.07006836 128.71875 C136.05343292 128.71864856 141.03665445 128.73229649 146.0199852 128.74952221 C149.89284898 128.76072842 153.76567911 128.76266658 157.63855743 128.76214027 C159.47386416 128.76330761 161.30917213 128.76765782 163.14446259 128.77547264 C186.23908603 128.86461248 207.45765513 126.52797705 225.16088867 109.88500977 C238.796637 95.04103057 243.70173175 78.84018066 243.50854492 59.03344727 C243.50790039 57.74696289 243.50725586 56.46047852 243.5065918 55.13500977 C244.03471002 49.46116287 244.03471002 49.46116287 242.32104492 44.53344727 C237.08634952 43.57332918 232.03079064 43.393245 226.7346344 43.41319275 C225.89560874 43.41233832 225.05658309 43.4114839 224.19213241 43.41060358 C221.39466777 43.40896298 218.59726376 43.41444682 215.79980469 43.41992188 C213.78894553 43.42020408 211.77808627 43.42004536 209.76722717 43.41947937 C204.31739323 43.41919269 198.86758133 43.42506852 193.4177525 43.43205333 C187.71892741 43.43830841 182.0201018 43.43889237 176.3212738 43.44007874 C165.53379841 43.44318569 154.74633317 43.45139053 143.95886225 43.46142823 C131.67598455 43.47260908 119.39310636 43.47810479 107.11022484 43.48312366 C81.84715925 43.49357366 56.58410265 43.51116081 31.32104492 43.53344727 Z " fill="#F5F5F5" transform="translate(118.678955078125,-0.533447265625)"/>
<path d="M0 0 C2.46338264 2.18760304 4.84448927 4.43483062 7.20703125 6.73046875 C7.84253906 7.30410156 8.47804688 7.87773437 9.1328125 8.46875 C23.84409667 22.13621799 31.19062949 43.64635662 32.4296875 63.25390625 C33.01766659 87.64225628 24.54205901 110.35533052 7.77539062 128.15771484 C-8.72669175 144.70603593 -29.88378931 152.9111678 -53.10546875 153.04296875 C-73.57143958 153.04296875 -93.25710962 147.63259667 -108.79296875 133.73046875 C-109.52515625 133.13878906 -110.25734375 132.54710937 -111.01171875 131.9375 C-126.12260919 119.38821599 -134.85244529 101.68142551 -138.79296875 82.73046875 C-138.94378906 82.00859375 -139.09460938 81.28671875 -139.25 80.54296875 C-139.5655961 78.59048088 -139.70824114 76.70744642 -139.79296875 74.73046875 C-139.84453125 73.65796875 -139.89609375 72.58546875 -139.94921875 71.48046875 C-140.53932592 47.87618204 -133.2326038 26.30738375 -116.9609375 9 C-116.24550781 8.25105469 -115.53007812 7.50210938 -114.79296875 6.73046875 C-114.25285156 6.11558594 -113.71273437 5.50070313 -113.15625 4.8671875 C-84.7649931 -26.24162043 -31.28009316 -25.41780996 0 0 Z M-84.671875 38.5078125 C-93.51324426 47.84567334 -96.20664821 58.48115796 -96.0625 71.03515625 C-95.23338356 82.40246284 -89.95133069 92.31674534 -81.40234375 99.83203125 C-71.72261797 106.98528772 -60.86608904 110.8935509 -48.79296875 109.73046875 C-35.61457192 106.93505124 -25.69956481 100.69768264 -17.79296875 89.73046875 C-11.6578943 79.10083426 -9.70618298 67.51041191 -12.91796875 55.48046875 C-17.04137115 43.74611332 -24.67395884 34.37295139 -35.79296875 28.73046875 C-53.31354247 21.112828 -71.07818748 25.6489189 -84.671875 38.5078125 Z " fill="#F1F1F1" transform="translate(309.79296875,231.26953125)"/>
</svg>
