<?xml version="1.0" encoding="UTF-8"?>
<svg version="1.1" xmlns="http://www.w3.org/2000/svg" width="512" height="512">
<path d="M0 0 C8.37772895 4.99560875 13.47402194 11.86103275 16.109375 21.2578125 C16.28824285 24.06462717 16.37135746 26.76813164 16.34988403 29.57211304 C16.35244731 30.80486857 16.35244731 30.80486857 16.35506237 32.06252825 C16.35834855 34.80788835 16.34736795 37.55300237 16.33642578 40.29833984 C16.33586148 42.26964309 16.3361786 44.24094675 16.33731079 46.21224976 C16.33788456 51.55886824 16.32612623 56.90539698 16.31216288 62.25199461 C16.29965963 67.84138248 16.29848534 73.43077242 16.29611206 79.02017212 C16.28989611 89.60228317 16.2734837 100.1843529 16.25341308 110.76644576 C16.2310577 122.81471748 16.22006155 134.86299118 16.21002221 146.91127849 C16.1891176 171.6934794 16.15393934 196.47564364 16.109375 221.2578125 C17.13090353 221.25412533 18.15243206 221.25043816 19.204916 221.24663925 C44.07708876 221.15778554 68.9492409 221.09208313 93.82153893 221.05056381 C105.84967062 221.02995098 117.87769738 221.00185468 129.90576172 220.95605469 C140.39114154 220.91614795 150.87644536 220.89037039 161.36189902 220.88145852 C166.91232504 220.87625032 172.46253362 220.8640355 178.01288986 220.83489227 C183.24134375 220.80766271 188.46949143 220.7993828 193.69800949 220.80538177 C195.61276923 220.80428491 197.52753962 220.79637618 199.44223785 220.7809906 C211.5858187 220.68822961 222.18721618 220.78393303 231.578125 229.5546875 C238.97178791 237.77825135 240.69127567 246.49226885 240.421875 257.26953125 C239.94754865 265.65522581 236.33467977 272.6607495 230.109375 278.2578125 C223.09470778 283.53284225 216.59806325 285.56573651 207.79507446 285.49832153 C206.56231893 285.50088481 206.56231893 285.50088481 205.30465925 285.50349987 C202.55929915 285.50678605 199.81418513 285.49580545 197.06884766 285.48486328 C195.09754441 285.48429898 193.12624075 285.4846161 191.15493774 285.48574829 C185.80831926 285.48632206 180.46179052 285.47456373 175.11519289 285.46060038 C169.52580502 285.44809713 163.93641508 285.44692284 158.34701538 285.44454956 C147.76490433 285.43833361 137.1828346 285.4219212 126.60074174 285.40185058 C114.55247002 285.3794952 102.50419632 285.36849905 90.45590901 285.35845971 C65.6737081 285.3375551 40.89154386 285.30237684 16.109375 285.2578125 C16.11306217 286.27934103 16.11674934 287.30086956 16.12054825 288.3533535 C16.20940196 313.22552626 16.27510437 338.0976784 16.31662369 362.96997643 C16.33723652 374.99810812 16.36533282 387.02613488 16.41113281 399.05419922 C16.45103955 409.53957904 16.47681711 420.02488286 16.48572898 430.51033652 C16.49093718 436.06076254 16.503152 441.61097112 16.53229523 447.16132736 C16.55952479 452.38978125 16.5678047 457.61792893 16.56180573 462.84644699 C16.56290259 464.76120673 16.57081132 466.67597712 16.5861969 468.59067535 C16.67895789 480.7342562 16.58325447 491.33565368 7.8125 500.7265625 C-0.41106385 508.12022541 -9.12508135 509.83971317 -19.90234375 509.5703125 C-28.28803831 509.09598615 -35.293562 505.48311727 -40.890625 499.2578125 C-46.16565475 492.24314528 -48.19854901 485.74650075 -48.13113403 476.94351196 C-48.13284288 476.12167494 -48.13455173 475.29983792 -48.13631237 474.45309675 C-48.13959855 471.70773665 -48.12861795 468.96262263 -48.11767578 466.21728516 C-48.11711148 464.24598191 -48.1174286 462.27467825 -48.11856079 460.30337524 C-48.11913456 454.95675676 -48.10737623 449.61022802 -48.09341288 444.26363039 C-48.08090963 438.67424252 -48.07973534 433.08485258 -48.07736206 427.49545288 C-48.07114611 416.91334183 -48.0547337 406.3312721 -48.03466308 395.74917924 C-48.0123077 383.70090752 -48.00131155 371.65263382 -47.99127221 359.60434651 C-47.9703676 334.8221456 -47.93518934 310.03998136 -47.890625 285.2578125 C-48.91215353 285.26149967 -49.93368206 285.26518684 -50.986166 285.26898575 C-75.85833876 285.35783946 -100.7304909 285.42354187 -125.60278893 285.46506119 C-137.63092062 285.48567402 -149.65894738 285.51377032 -161.68701172 285.55957031 C-172.17239154 285.59947705 -182.65769536 285.62525461 -193.14314902 285.63416648 C-198.69357504 285.63937468 -204.24378362 285.6515895 -209.79413986 285.68073273 C-215.02259375 285.70796229 -220.25074143 285.7162422 -225.47925949 285.71024323 C-227.39401923 285.71134009 -229.30878962 285.71924882 -231.22348785 285.7346344 C-243.3670687 285.82739539 -253.96846618 285.73169197 -263.359375 276.9609375 C-270.75303791 268.73737365 -272.47252567 260.02335615 -272.203125 249.24609375 C-271.72879865 240.86039919 -268.11592977 233.8548755 -261.890625 228.2578125 C-254.87595778 222.98278275 -248.37931325 220.94988849 -239.57632446 221.01730347 C-238.75448744 221.01559462 -237.93265042 221.01388577 -237.08590925 221.01212513 C-234.34054915 221.00883895 -231.59543513 221.01981955 -228.85009766 221.03076172 C-226.87879441 221.03132602 -224.90749075 221.0310089 -222.93618774 221.02987671 C-217.58956926 221.02930294 -212.24304052 221.04106127 -206.89644289 221.05502462 C-201.30705502 221.06752787 -195.71766508 221.06870216 -190.12826538 221.07107544 C-179.54615433 221.07729139 -168.9640846 221.0937038 -158.38199174 221.11377442 C-146.33372002 221.1361298 -134.28544632 221.14712595 -122.23715901 221.15716529 C-97.4549581 221.1780699 -72.67279386 221.21324816 -47.890625 221.2578125 C-47.89615576 219.7255197 -47.89615576 219.7255197 -47.90179825 218.1622715 C-47.99065196 193.29009874 -48.05635437 168.4179466 -48.09787369 143.54564857 C-48.11848652 131.51751688 -48.14658282 119.48949012 -48.19238281 107.46142578 C-48.23228955 96.97604596 -48.25806711 86.49074214 -48.26697898 76.00528848 C-48.27218718 70.45486246 -48.284402 64.90465388 -48.31354523 59.35429764 C-48.34077479 54.12584375 -48.3490547 48.89769607 -48.34305573 43.66917801 C-48.34415259 41.75441827 -48.35206132 39.83964788 -48.3674469 37.92494965 C-48.46020789 25.7813688 -48.36450447 15.17997132 -39.59375 5.7890625 C-28.99673947 -3.73852495 -12.95346121 -6.21592266 0 0 Z " fill="#FCFCFC" transform="translate(271.890625,2.7421875)"/>
</svg>
